<?xml version="1.0" ?><!DOCTYPE svg  PUBLIC '-//W3C//DTD SVG 1.1//EN'  'http://www.w3.org/Graphics/SVG/1.1/DTD/svg11.dtd'><svg height="2048px" style="shape-rendering:geometricPrecision; text-rendering:geometricPrecision; image-rendering:optimizeQuality; fill-rule:evenodd; clip-rule:evenodd" viewBox="0 0 2048 2048" width="2048px" xml:space="preserve" xmlns="http://www.w3.org/2000/svg" xmlns:xlink="http://www.w3.org/1999/xlink"><defs><style type="text/css">
   <![CDATA[
    .fil2 {fill:none}
    .fil0 {fill:#7B519D}
    .fil1 {fill:#FFFFFE}
   ]]>
  </style></defs><g id="Layer_x0020_1"><polygon class="fil0" points="1792,1792 1792,255.999 255.999,255.999 255.999,1792 "/><path class="fil1" d="M921.89 774.262c-1.74095,-31.787 -38.713,-97.2934 -82.1138,-156.499 -42.7772,-58.356 -92.9079,-112.126 -122.945,-123.175 -13.0547,-4.80355 -26.1898,-7.04764 -39.4713,-6.97441 -13.1067,0.0696851 -26.1295,2.41299 -39.1642,6.78898 -6.94843,2.33504 -13.3571,4.70315 -19.2236,7.09253 -57.9697,23.6126 -99.5103,60.7063 -121.754,106.996 -22.2933,46.3914 -24.9036,101.411 -4.95,160.736 2.10827,6.27048 4.31457,12.2386 6.613,17.8795 36.5658,89.7757 79.4883,173.418 129.148,250.516 49.7788,77.2808 106.225,147.876 169.709,211.358 63.4808,63.4831 134.069,119.926 211.35,169.701 77.0906,49.6524 160.729,92.5737 250.51,129.139 5.66339,2.30669 11.6492,4.5189 17.9374,6.63308 59.3103,19.9406 114.312,17.3303 160.689,-4.95591 46.2756,-22.2343 83.3564,-63.7571 106.963,-121.699 2.39646,-5.88308 4.77048,-12.3106 7.1126,-19.278 4.38189,-13.0299 6.7252,-26.0587 6.79725,-39.1713 0.0732284,-13.2839 -2.17205,-26.4225 -6.9626,-39.4772 -11.0551,-30.0355 -64.8485,-80.1851 -123.221,-122.969 -59.1981,-43.389 -124.686,-80.3469 -156.471,-82.0749 -26.2713,-1.43032 -46.5662,6.81497 -63.3189,19.8673 -15.5457,12.1122 -27.313,28.0063 -38.0055,43.7622 -15.8126,23.2701 -33.2044,34.8756 -51.841,38.1118 -19.4977,3.38386 -41.374,-1.83898 -64.8579,-12.2823 -25.6795,-11.4272 -49.7941,-24.4961 -72.156,-39.3638 -22.1705,-14.7413 -42.5209,-31.2107 -60.8599,-49.5603l-0.0673229 -0.0673229c-18.3378,-18.3284 -34.8012,-38.6752 -49.5426,-60.8457 -14.8701,-22.363 -27.9437,-46.4823 -39.3803,-72.169 -10.4445,-23.4768 -15.6662,-45.3496 -12.2787,-64.8485 3.23622,-18.6343 14.8488,-36.0296 38.1248,-51.8339 15.75,-10.6937 31.6406,-22.4646 43.7528,-38.0138 13.05,-16.7539 21.3012,-37.0524 19.878,-63.3249z"/><path class="fil1" d="M1319.79 929.355c-4.39252,-50.6339 -28.8024,-97.4611 -65.1981,-132.698 -36.2906,-35.1331 -84.5599,-58.8414 -136.798,-63.3638l-0.0673229 0c-3.68032,-0.311811 -7.95119,-0.529134 -12.789,-0.64252 -4.12323,-0.0980316 -8.15434,-0.0767717 -12.0638,0.0625985l0 -0.0425197 -0.673229 0.0673229c-14.7319,0.609449 -27.8044,7.1126 -37.0264,17.1295 -9.07678,9.86576 -14.4532,23.1449 -14.0351,37.5744l-0.0437008 0 0.0661418 0.672048c0.608268,14.7201 7.11142,27.7819 17.1248,37.004 10.0075,9.21733 23.5536,14.6232 38.2347,14.0421l0.0661418 0c2.03386,-0.0897638 3.99803,-0.112205 5.88189,-0.0696851 1.40433,0.034252 3.45945,0.170079 6.14056,0.403937 26.2642,2.27953 51.515,14.9374 70.7941,33.267 19.0642,18.1252 32.0906,41.6032 34.1811,65.7815 0.220866,2.51457 0.341339,4.45276 0.354331,5.79922 0.0165354,1.61575 -0.0519685,3.52087 -0.204331,5.70119 -0.986221,14.6398 4.07599,28.3311 13.0618,38.6221 8.92914,10.2284 21.7323,17.0634 36.3071,18.0992l-0.0011811 0.0153543 2.05394 0.0649607 1.77402 0.0212599 0 0.0673229c13.865,0 26.6977,-5.44725 36.3166,-14.4425 9.53741,-8.91851 15.8445,-21.2929 16.7929,-35.2583 0.292914,-4.24607 0.414567,-8.86418 0.366142,-13.8165 -0.0519685,-5.22756 -0.258662,-9.93072 -0.616536,-14.061z"/><path class="fil1" d="M1349.74 703.144c-29.0788,-29.0776 -62.6587,-52.6122 -98.9859,-69.769 -36.3626,-17.1732 -75.378,-27.9059 -115.297,-31.3618 -10.8945,-0.943702 -22.1776,-1.30158 -33.7642,-1.07599l-0.0673229 0c-11.2122,0.220866 -22.3855,1.03583 -33.4347,2.44725l-0.00826772 -0.0578741 -0.0295276 0.00354331 -0.0673229 0.0673229c-14.5949,1.87087 -27.0484,9.46418 -35.3729,20.2299 -8.30079,10.735 -12.5162,24.6437 -10.6854,39.1878l-0.0578741 0.00708662 0.00354331 0.0307087 0.0673229 0.0661418c1.85788,14.6055 9.46064,27.052 20.2288,35.3823 10.7681,8.3315 24.7311,12.5528 39.2977,10.7055 7.32638,-0.933072 14.7437,-1.4752 22.1823,-1.61693 7.10906,-0.135827 14.6339,0.13937 22.5236,0.829134 27.4831,2.37756 54.3426,9.78898 79.3631,21.6508 25.0524,11.876 48.3685,28.2862 68.7296,48.6473 19.4764,19.4752 35.1177,41.4992 46.3784,64.9264 11.2228,23.3516 18.2114,48.3012 20.4177,73.7138 0.622441,7.1752 0.870473,14.0067 0.745276,20.4402 -0.131102,6.72756 -0.622441,13.4445 -1.47047,20.0894 -1.84488,14.5984 2.37756,28.552 10.7067,39.3024 8.34449,10.774 20.8087,18.3638 35.4177,20.2229l0.133465 0.0661418c0.823229,0.0968505 1.91457,0.191339 3.30945,0.27874 1.46693,0.090945 2.57835,0.13937 3.28701,0.13937 13.2543,0 25.6736,-5.00079 35.2051,-13.4114 9.35906,-8.25473 15.8717,-19.8319 17.5725,-33.2008 1.32284,-10.402 2.08937,-20.9291 2.29016,-31.5107 0.207874,-10.8862 -0.12874,-21.4524 -1.01339,-31.6158 -3.28465,-37.8969 -13.6158,-75.0497 -30.1866,-109.781 -16.5354,-34.6524 -39.2752,-66.8894 -67.4186,-95.0328z"/><path class="fil1" d="M1538.67 728.02c-22.4823,-47.4284 -53.3457,-91.3713 -91.4965,-129.523 -39.0733,-39.0733 -84.3473,-70.7186 -133.445,-93.8186 -49.0878,-23.0977 -101.815,-37.5414 -155.803,-42.2209 -17.4662,-1.51654 -35.2571,-1.96417 -53.2311,-1.34291 -17.7591,0.614174 -35.4012,2.30315 -52.793,5.06339 -14.5417,2.30906 -26.7697,10.2827 -34.7729,21.3036 -7.98544,10.9949 -11.778,25.0784 -9.47245,39.6296 2.30788,14.55 10.278,26.7768 21.2965,34.7788 10.9984,7.98662 25.0795,11.7732 39.6414,9.46772 13.1268,-2.08229 26.4107,-3.35551 39.7465,-3.81496 13.1232,-0.451181 26.6197,-0.0791339 40.3843,1.11614 41.6433,3.60473 82.232,14.726 119.94,32.5028 37.8449,17.8406 72.8327,42.3496 103.135,72.6603l0 0.0673229c29.4473,29.4496 53.1863,63.1205 70.3796,99.2646 17.1851,36.124 27.9118,74.8217 31.3441,114.34 1.18347,13.7185 1.49882,27.2209 0.944883,40.3961 -0.555119,13.1788 -1.98898,26.4685 -4.29922,39.7571 -2.50866,14.452 1.09488,28.5721 8.94213,39.7193 7.85316,11.1543 19.9772,19.3205 34.4965,21.8492l0.0661418 0c1.73032,0.290551 3.2374,0.497244 4.48701,0.604725 1.54252,0.133465 3.0626,0.201969 4.54607,0.201969 12.7512,0 24.8197,-4.65827 34.2579,-12.6106 9.29174,-7.82835 15.9791,-18.8079 18.1984,-31.6323 3.04016,-17.4662 4.94528,-35.3327 5.70827,-53.4709 0.765355,-18.1961 0.377953,-36.2433 -1.16102,-54.0142 -4.50118,-51.9615 -18.548,-102.819 -41.041,-150.274z"/></g><rect class="fil2" height="2048" width="2048"/></svg>